<svg width="26" height="26" viewBox="0 0 26 26" fill="none" xmlns="http://www.w3.org/2000/svg">
<path d="M7.68182 21.8636V15.9545L12.4091 18.9091L7.68182 21.8636ZM14.1818 10.6364C13.197 10.6364 12.3598 10.2917 11.6705 9.60227C10.9811 8.91288 10.6364 8.07576 10.6364 7.09091C10.6364 6.10606 10.9811 5.26894 11.6705 4.57955C12.3598 3.89015 13.197 3.54545 14.1818 3.54545H15.6591V5.31818H14.1818C13.6894 5.31818 13.271 5.49073 12.9267 5.83582C12.5816 6.18012 12.4091 6.59848 12.4091 7.09091C12.4091 7.58333 12.5816 8.0017 12.9267 8.346C13.271 8.69109 13.6894 8.86364 14.1818 8.86364H15.6591V10.6364H14.1818ZM17.4318 10.6364V8.86364H18.9091C19.4015 8.86364 19.8199 8.69109 20.1642 8.346C20.5093 8.0017 20.6818 7.58333 20.6818 7.09091C20.6818 6.59848 20.5093 6.18012 20.1642 5.83582C19.8199 5.49073 19.4015 5.31818 18.9091 5.31818H17.4318V3.54545H18.9091C19.8939 3.54545 20.7311 3.89015 21.4205 4.57955C22.1098 5.26894 22.4545 6.10606 22.4545 7.09091C22.4545 8.07576 22.1098 8.91288 21.4205 9.60227C20.7311 10.2917 19.8939 10.6364 18.9091 10.6364H17.4318ZM14.1818 7.97727V6.20455H18.9091V7.97727H14.1818ZM17.8455 15.3636V13H23.6364V2.36364H9.45455V13H7.09091V2.36364C7.09091 1.71364 7.32254 1.157 7.78582 0.693727C8.2483 0.231242 8.80455 0 9.45455 0H23.6364C24.2864 0 24.843 0.231242 25.3063 0.693727C25.7688 1.157 26 1.71364 26 2.36364V13C26 13.65 25.7688 14.2062 25.3063 14.6687C24.843 15.132 24.2864 15.3636 23.6364 15.3636H17.8455ZM2.36364 26C1.71364 26 1.15739 25.7688 0.694909 25.3063C0.231636 24.843 0 24.2864 0 23.6364V14.1818C0 13.5318 0.231636 12.9752 0.694909 12.5119C1.15739 12.0494 1.71364 11.8182 2.36364 11.8182H16.5455C17.1955 11.8182 17.7521 12.0494 18.2154 12.5119C18.6778 12.9752 18.9091 13.5318 18.9091 14.1818V23.6364C18.9091 24.2864 18.6778 24.843 18.2154 25.3063C17.7521 25.7688 17.1955 26 16.5455 26H2.36364ZM2.36364 23.6364H16.5455V14.1818H2.36364V23.6364Z" fill="#A58F67"/>
</svg>
