<svg width="42" height="42" viewBox="0 0 42 42" fill="none" xmlns="http://www.w3.org/2000/svg">
<path d="M17.85 23.0999L16.0125 21.2624C16.4208 20.6791 16.625 20.0152 16.625 19.2709C16.625 18.5277 16.4208 17.8645 16.0125 17.2812L17.85 15.3999C18.7833 16.5082 19.25 17.7916 19.25 19.2499C19.25 20.7082 18.7833 21.9916 17.85 23.0999ZM21.5687 26.8624L19.6875 24.9812C21.1458 23.3478 21.875 21.4444 21.875 19.2709C21.875 17.0986 21.1458 15.1957 19.6875 13.5624L21.5687 11.6812C22.5312 12.7603 23.2604 13.9562 23.7562 15.2687C24.2521 16.5812 24.5 17.9152 24.5 19.2709C24.5 20.6277 24.2521 21.9624 23.7562 23.2749C23.2604 24.5874 22.5312 25.7832 21.5687 26.8624ZM8.75 20.9999C7.7875 20.9999 6.96325 20.6569 6.27725 19.9709C5.59242 19.2861 5.25 18.4624 5.25 17.4999C5.25 16.5374 5.59242 15.7132 6.27725 15.0272C6.96325 14.3423 7.7875 13.9999 8.75 13.9999C9.7125 13.9999 10.5362 14.3423 11.221 15.0272C11.907 15.7132 12.25 16.5374 12.25 17.4999C12.25 18.4624 11.907 19.2861 11.221 19.9709C10.5362 20.6569 9.7125 20.9999 8.75 20.9999ZM1.75 27.9999V26.9937C1.75 26.2937 1.93958 25.652 2.31875 25.0687C2.69792 24.4853 3.22292 24.0478 3.89375 23.7562C4.65208 23.4353 5.432 23.1874 6.2335 23.0124C7.03617 22.8374 7.875 22.7499 8.75 22.7499C9.625 22.7499 10.4638 22.8374 11.2665 23.0124C12.068 23.1874 12.8479 23.4353 13.6063 23.7562C14.2771 24.0478 14.8021 24.4853 15.1813 25.0687C15.5604 25.652 15.75 26.2937 15.75 26.9937V27.9999H1.75ZM33.25 20.9999C32.2875 20.9999 31.4632 20.6569 30.7772 19.9709C30.0924 19.2861 29.75 18.4624 29.75 17.4999C29.75 16.5374 30.0924 15.7132 30.7772 15.0272C31.4632 14.3423 32.2875 13.9999 33.25 13.9999C34.2125 13.9999 35.0368 14.3423 35.7228 15.0272C36.4076 15.7132 36.75 16.5374 36.75 17.4999C36.75 18.4624 36.4076 19.2861 35.7228 19.9709C35.0368 20.6569 34.2125 20.9999 33.25 20.9999ZM26.25 27.9999V26.9937C26.25 26.2937 26.4396 25.652 26.8187 25.0687C27.1979 24.4853 27.7229 24.0478 28.3938 23.7562C29.1521 23.4353 29.932 23.1874 30.7335 23.0124C31.5362 22.8374 32.375 22.7499 33.25 22.7499C34.125 22.7499 34.9638 22.8374 35.7665 23.0124C36.568 23.1874 37.3479 23.4353 38.1062 23.7562C38.7771 24.0478 39.3021 24.4853 39.6812 25.0687C40.0604 25.652 40.25 26.2937 40.25 26.9937V27.9999H26.25Z" fill="#A58F67"/>
</svg>
